<?xml version="1.0" standalone="no"?>
<!DOCTYPE svg PUBLIC "-//W3C//DTD SVG 20010904//EN"
 "http://www.w3.org/TR/2001/REC-SVG-20010904/DTD/svg10.dtd">
<svg version="1.0" xmlns="http://www.w3.org/2000/svg"
 width="300.000000pt" height="284.000000pt" viewBox="0 0 300.000000 284.000000"
 preserveAspectRatio="xMidYMid meet">

<g transform="translate(0.000000,284.000000) scale(0.100000,-0.100000)"
fill="#000000" stroke="none">
<path d="M1369 2825 c-219 -44 -498 -182 -744 -368 -184 -140 -405 -394 -513
-590 -159 -288 -145 -505 46 -706 37 -39 74 -71 83 -71 8 0 38 28 66 62 132
163 317 324 484 423 90 53 259 126 327 140 35 7 40 16 18 34 -24 20 -65 126
-75 192 -27 196 76 386 256 472 64 30 74 32 183 32 109 0 119 -2 183 -32 180
-85 287 -283 256 -473 -11 -68 -52 -171 -75 -191 -22 -18 -17 -27 19 -34 67
-14 236 -87 326 -140 169 -100 350 -257 482 -420 29 -36 59 -65 68 -65 22 0
130 116 170 184 40 67 71 171 71 239 0 320 -390 817 -863 1097 -327 195 -553
258 -768 215z"/>
<path d="M1252 2097 c-51 -106 -92 -196 -92 -199 0 -4 25 -28 56 -54 42 -36
58 -45 64 -34 4 7 27 69 50 137 23 68 46 125 50 128 5 3 32 -23 60 -57 29 -35
56 -63 60 -63 4 0 31 28 60 63 29 34 56 62 59 62 3 0 25 -58 49 -128 24 -70
47 -134 52 -142 13 -21 123 75 115 101 -4 11 -46 101 -93 200 l-88 181 -74
-86 c-40 -47 -76 -86 -80 -86 -3 0 -34 34 -70 75 -35 42 -69 80 -75 85 -8 7
-39 -48 -103 -183z"/>
<path d="M1390 1674 c-244 -31 -468 -117 -672 -256 -97 -67 -232 -192 -226
-211 2 -6 28 -25 58 -40 50 -26 62 -28 140 -24 63 3 107 12 170 35 47 17 130
47 185 67 141 52 251 74 395 81 219 11 322 -11 715 -154 47 -17 98 -27 155
-29 78 -4 89 -2 140 24 30 15 56 34 58 40 6 19 -129 144 -226 211 -164 112
-350 193 -535 232 -90 20 -288 33 -357 24z"/>
<path d="M633 798 c-50 -53 -78 -107 -91 -178 -26 -141 50 -270 161 -270 33 0
34 -1 45 -61 27 -144 144 -214 268 -160 27 12 50 18 52 12 12 -36 67 -92 113
-115 97 -48 196 -28 273 54 l46 49 43 -46 c79 -86 177 -106 276 -57 46 23 101
79 113 115 2 6 25 0 52 -12 128 -56 250 22 271 174 6 46 7 47 41 47 61 0 113
38 149 109 25 50 17 189 -14 251 -24 47 -98 130 -116 130 -5 0 -32 -28 -59
-61 -114 -140 -310 -259 -521 -315 -56 -15 -104 -19 -235 -18 -145 1 -177 4
-265 27 -190 51 -381 171 -491 307 -27 33 -54 60 -59 60 -6 0 -29 -19 -52 -42z"/>
</g>
</svg>
